<?xml version="1.0" encoding="utf-8"?>
<!-- Generator: Adobe Illustrator 24.0.1, SVG Export Plug-In . SVG Version: 6.00 Build 0)  -->
<svg version="1.1" id="Capa_1" xmlns="http://www.w3.org/2000/svg" xmlns:xlink="http://www.w3.org/1999/xlink" x="0px" y="0px"
	 width="183.4px" height="183.4px" viewBox="0 0 183.4 183.4" style="enable-background:new 0 0 183.4 183.4;" xml:space="preserve"
	>
<style type="text/css">
	.st0{fill:#FFFFFF;stroke:#1D89FF;stroke-miterlimit:10;}
</style>
<path class="st0" d="M180.9,159.7c-0.1,0-0.3,0-0.4,0l-59.1-9.2l-59.1,9.2c0,0,0,0,0,0l0,0c0,0,0,0,0,0c0,0,0,0,0,0c0,0,0,0,0,0
	c0,0,0,0,0,0c0,0,0,0,0,0c0,0,0,0,0,0c0,0,0,0,0,0c0,0,0,0,0,0c0,0,0,0,0,0l0,0c-0.1,0-0.2,0-0.2,0c0,0,0,0,0,0c0,0,0,0,0,0h0
	c0,0,0,0,0,0l0,0c0,0,0,0,0,0c0,0,0,0,0,0c0,0,0,0,0,0c0,0,0,0,0,0c0,0,0,0,0,0s0,0,0,0l0,0l0,0l0,0c0,0,0,0,0,0c0,0,0,0,0,0
	c0,0,0,0,0,0c0,0,0,0,0,0c0,0,0,0,0,0c0,0,0,0,0,0c0,0,0,0,0,0c0,0,0,0,0,0c0,0,0,0,0,0c0,0,0,0,0,0c0,0,0,0,0,0l0,0c0,0,0,0,0,0
	c0,0,0,0,0,0h0c0,0,0,0,0,0c-0.1,0-0.2,0-0.3,0l-59.5-9.3c-1.2-0.2-2.1-1.2-2.1-2.5V26.2c0-0.7,0.3-1.4,0.9-1.9
	c0.6-0.5,1.3-0.7,2-0.6L62,33l59.1-9.2c0.1,0,0.2,0,0.4,0c0,0,0,0,0,0c0,0,0,0,0,0c0,0,0,0,0,0s0,0,0,0s0,0,0,0l0,0c0,0,0,0,0,0
	c0,0,0,0,0,0s0,0,0,0c0,0,0,0,0,0s0,0,0,0c0,0,0,0,0,0l0,0c0.1,0,0.2,0,0.4,0l59.5,9.3c1.2,0.2,2.1,1.2,2.1,2.5v121.7
	c0,0.7-0.3,1.4-0.9,1.9C182.1,159.5,181.5,159.7,180.9,159.7z M64.5,130.7v23.5l54.5-8.5v-30.1c-1.8-0.3-3.3-0.9-4.8-1.8
	c-6.4-3.9-8.2-12.8-10-22.3c-2-10.3-4.2-20.9-11.9-26.8c-11.8-9-22.6-5.3-26.7-3.3c-0.4,0.2-0.7,0.4-1.1,0.6v27.9
	c0.1,0.1,0.2,0.2,0.3,0.3c9.3,8.4,20.8,18.8,9.3,32.5C71,126.4,67.8,129,64.5,130.7z M123.9,145.8l54.5,8.5V37.6l-54.5-8.5v81.6
	c1-0.1,2.1-0.4,3.3-0.7c22.7-6.3,23.1-30.3,22.7-37.1c-0.7,0.1-1.4,0.2-2.2,0.2c-5.9,0-10.7-4.8-10.7-10.7s4.8-10.7,10.7-10.7
	s10.7,4.8,10.7,10.7c0,3.3-1.5,6.2-3.7,8.1c0,0,0,0,0,0c0,0.4,3.9,35.9-26.2,44.3c-1.7,0.5-3.2,0.8-4.7,0.9L123.9,145.8L123.9,145.8
	z M5,145.8l54.5,8.5v-21.5c-11,3.3-21.4-1-25.3-2.9c-1.6,1.6-3.9,2.5-6.3,2.5c-5.1,0-9.2-4.1-9.2-9.2s4.1-9.2,9.2-9.2
	s9.2,4.1,9.2,9.2c0,0.8-0.1,1.6-0.3,2.3c3.6,1.8,13.1,5.6,22.8,2V92.3c-5.5-5-10.2-9.9-10.2-15.7c0-6.3,4-12.8,10.2-17.2V37.6
	L5,29.1V145.8z M27.8,119.1c-2.3,0-4.2,1.9-4.2,4.2s1.9,4.2,4.2,4.2s4.2-1.9,4.2-4.2S30.1,119.1,27.8,119.1z M64.5,96.8v28.1
	c2-1.4,3.9-3.1,5.8-5.3C77.3,111.2,73.2,105.1,64.5,96.8z M76.1,54.1c6.6,0,13.3,2.3,19.2,6.8c9.2,7,11.6,19.1,13.7,29.7
	c1.7,8.3,3.2,16.2,7.7,19c0.6,0.4,1.4,0.7,2.1,0.9V29.1l-54.5,8.5v19C68.2,55,72.2,54.1,76.1,54.1z M59.5,65.9
	c-3.3,3.2-5.2,7-5.2,10.7c0,2.7,2.2,5.7,5.2,8.7V65.9z M147.8,56.6c-3.2,0-5.7,2.6-5.7,5.7s2.6,5.7,5.7,5.7s5.7-2.6,5.7-5.7
	C153.5,59.2,151,56.6,147.8,56.6z"/>
</svg>
